# xmcd CD database file
#
# Track frame offsets:
#	150
#	16901
#	34194
#	47425
#	65830
#	92667
#	107718
#	124721
#	142682
#	161075
#	181528
#	202198
#	222089
#
# Disc length: 3642 seconds
#
# Revision: 0
# Processed by: cddbd v1.5.2PL0 Copyright (c) Steve Scherf et al.
# Submitted via: CDex 1.51
#
DISCID=ac0e380d
DTITLE=Janice DeRosa - DeRosa
DYEAR=2007
DGENRE=Blues
TTITLE0=Hoodoo
TTITLE1=Runaway
TTITLE2=Tell Mama
TTITLE3=Mystery of love
TTITLE4=Ball and Chain
TTITLE5=Hands in Your Pockets
TTITLE6=Sure had a wonderfull Time Last Night
TTITLE7=Rather go Blind
TTITLE8=Little Wing
TTITLE9=Baby, Baby don't cry
TTITLE10=Time is Money
TTITLE11=Bring it on Home
TTITLE12=the morning after
EXTD=YEAR: 2007
EXTT0=
EXTT1=
EXTT2=
EXTT3=
EXTT4=
EXTT5=
EXTT6=
EXTT7=
EXTT8=
EXTT9=
EXTT10=
EXTT11=
EXTT12=
PLAYORDER=
